<?xml version="1.0" standalone="no"?>
<!DOCTYPE svg PUBLIC "-//W3C//DTD SVG 20010904//EN"
 "http://www.w3.org/TR/2001/REC-SVG-20010904/DTD/svg10.dtd">
<svg version="1.0" xmlns="http://www.w3.org/2000/svg"
 width="623.000000pt" height="601.000000pt" viewBox="0 0 623.000000 601.000000"
 preserveAspectRatio="xMidYMid meet">

<g transform="translate(0.000000,601.000000) scale(0.100000,-0.100000)"
fill="#000000" stroke="none">
<path d="M2895 5497 c-9 -15 -75 -151 -145 -303 -70 -151 -131 -278 -134 -282
-4 -3 -23 11 -44 31 -96 93 -493 369 -508 354 -12 -12 -44 -290 -52 -464 -5
-99 -12 -186 -16 -192 -11 -17 -38 -13 -99 14 -110 48 -458 145 -524 145 -31
0 -32 -1 -27 -32 14 -86 81 -338 124 -471 32 -99 44 -150 37 -152 -7 -2 -102
-6 -212 -9 -179 -4 -371 -18 -432 -32 -13 -2 -23 -10 -23 -17 0 -7 22 -49 50
-94 45 -73 88 -135 263 -377 44 -60 55 -82 46 -92 -6 -7 -41 -23 -77 -35 -156
-51 -522 -219 -522 -240 0 -20 349 -270 506 -363 l49 -29 -85 -76 c-47 -41
-159 -148 -249 -237 l-164 -162 32 -16 c42 -22 307 -98 456 -130 66 -15 130
-29 142 -31 l23 -5 -19 -48 c-11 -26 -71 -154 -135 -284 -129 -264 -136 -285
-111 -294 24 -10 333 13 504 37 79 11 147 16 152 12 4 -4 1 -42 -7 -83 -38
-200 -68 -590 -45 -590 17 0 235 97 414 184 98 47 182 86 187 86 15 0 20 -15
44 -143 27 -141 98 -419 121 -473 12 -29 17 -33 32 -25 24 13 404 398 431 436
17 25 24 28 39 19 10 -6 61 -79 113 -163 52 -83 132 -203 178 -267 69 -95 86
-113 98 -103 37 30 156 271 244 492 23 59 45 107 49 107 3 0 38 -25 76 -56
175 -140 448 -334 471 -334 6 0 14 15 18 33 16 90 39 340 45 482 6 152 7 160
26 158 11 -1 85 -24 165 -52 121 -42 315 -97 444 -126 l29 -6 -7 58 c-8 70
-61 280 -116 462 -22 74 -40 138 -40 143 0 4 53 8 118 8 116 1 326 13 431 26
38 5 62 14 78 30 22 22 23 25 9 59 -18 43 -161 255 -236 350 -85 107 -102 134
-96 150 3 8 13 15 21 15 43 0 585 242 585 261 0 25 -354 276 -509 361 -17 9
-31 24 -31 32 0 8 75 84 168 169 202 187 305 293 298 306 -18 28 -356 131
-548 166 -54 10 -98 23 -98 28 0 5 34 69 76 143 103 183 214 424 214 466 0 20
-465 -15 -615 -46 -47 -10 -65 -10 -65 -2 0 6 9 65 20 131 24 140 62 524 53
538 -3 5 -17 6 -32 2 -45 -11 -229 -94 -414 -186 -121 -61 -179 -85 -182 -77
-3 7 -20 90 -40 183 -53 258 -114 455 -139 455 -19 0 -296 -269 -390 -379 -63
-73 -82 -89 -91 -79 -6 7 -40 60 -75 118 -82 136 -217 333 -267 390 l-40 44
-18 -27z m451 -641 c19 -41 62 -147 94 -237 l59 -164 -88 -85 c-48 -47 -111
-112 -140 -144 -29 -33 -56 -55 -59 -49 -4 5 -29 45 -57 89 -27 43 -71 110
-99 148 l-50 69 48 91 c88 164 221 356 248 356 5 0 25 -33 44 -74z m-607 -73
c50 -54 124 -140 164 -192 l75 -93 -45 -95 c-24 -53 -62 -134 -83 -180 l-39
-83 -125 94 c-68 52 -137 101 -153 110 l-29 15 22 128 c43 248 83 393 109 393
8 0 54 -44 104 -97z m1215 -31 c11 -19 26 -371 19 -445 l-8 -77 -112 -49 c-61
-27 -136 -63 -166 -80 -71 -41 -83 -40 -91 7 -4 20 -23 101 -42 179 l-34 141
57 55 c72 68 185 159 282 226 77 53 86 57 95 43z m-1774 -219 c46 -25 133 -75
192 -110 92 -56 107 -68 103 -86 -10 -44 -25 -204 -25 -272 0 -100 -3 -102
-91 -70 -41 15 -121 39 -179 54 l-104 28 -18 93 c-38 194 -59 416 -42 433 9 8
60 -14 164 -70z m2309 -215 c-12 -53 -58 -196 -111 -344 l-40 -112 -111 -7
c-62 -4 -152 -13 -202 -20 -49 -8 -91 -13 -91 -12 -1 1 2 22 6 47 5 25 16 110
25 190 8 79 19 148 23 151 9 9 251 93 357 124 44 13 96 24 116 24 l37 1 -9
-42z m-1221 -270 c22 -57 45 -121 52 -143 7 -22 15 -44 17 -48 3 -4 26 11 51
35 53 49 156 129 189 146 17 9 24 9 29 0 4 -7 8 -80 8 -163 l1 -151 125 42
c69 24 139 44 155 46 27 3 30 0 27 -22 -3 -20 -63 -210 -87 -272 -6 -14 10
-17 148 -20 86 -1 159 -6 163 -10 9 -10 -48 -93 -131 -188 l-65 -75 53 -18
c89 -30 247 -99 247 -108 0 -10 -88 -70 -187 -128 -40 -23 -73 -46 -73 -50 0
-5 37 -41 83 -81 45 -40 95 -88 110 -106 25 -30 26 -34 10 -42 -21 -11 -129
-35 -230 -52 l-71 -11 45 -77 c64 -108 107 -202 97 -212 -9 -8 -172 10 -258
30 -27 6 -51 9 -53 6 -3 -2 2 -46 11 -98 8 -51 18 -122 22 -157 l7 -63 -24 7
c-30 9 -157 74 -225 115 l-52 30 -6 -47 c-9 -59 -45 -219 -58 -252 l-9 -24
-40 39 c-23 21 -70 74 -106 117 -35 42 -69 77 -74 77 -4 0 -16 -15 -25 -32
-34 -69 -138 -218 -151 -218 -16 0 -45 61 -93 198 -30 84 -35 91 -50 80 -10
-7 -56 -44 -102 -81 -89 -73 -136 -103 -146 -92 -4 4 -8 76 -10 162 -3 128 -6
154 -17 149 -64 -24 -227 -76 -257 -81 -33 -6 -38 -5 -38 12 0 20 43 150 78
239 l20 51 -156 6 c-86 4 -160 11 -164 15 -10 10 50 94 135 192 31 35 53 67
49 71 -4 4 -25 12 -47 19 -47 15 -245 106 -245 113 0 7 183 119 240 147 l44
22 -39 31 c-74 58 -198 184 -191 195 7 12 154 47 239 58 31 3 59 10 62 13 2 4
-12 34 -31 66 -38 63 -114 210 -114 221 0 11 147 -5 240 -25 47 -11 86 -18 87
-17 1 1 -7 51 -17 111 -11 61 -20 134 -20 163 0 51 1 53 23 46 23 -7 151 -78
221 -121 45 -29 51 -25 61 51 10 75 45 220 56 231 11 11 70 -44 152 -145 33
-41 64 -79 68 -84 4 -5 20 16 34 45 42 83 135 219 150 219 8 0 30 -42 53 -102z
m-1556 76 c127 -17 280 -47 319 -63 20 -7 28 -19 33 -48 4 -21 25 -100 47
-175 21 -76 39 -141 39 -146 0 -5 -73 -12 -162 -16 -90 -3 -174 -9 -188 -12
-23 -5 -30 4 -86 98 -60 100 -146 264 -177 341 l-16 37 39 0 c22 0 90 -7 152
-16z m3043 -294 c60 -6 113 -14 118 -19 14 -14 -213 -310 -301 -395 l-30 -28
-79 26 c-43 14 -127 37 -187 50 -59 14 -109 26 -111 28 -1 2 24 50 57 108 32
58 71 135 86 172 l27 68 155 0 c85 0 204 -5 265 -10z m-2962 -249 c20 -32 68
-101 107 -154 38 -52 70 -99 70 -105 0 -5 -33 -22 -72 -37 -40 -14 -117 -47
-170 -72 -94 -44 -98 -45 -123 -29 -75 49 -355 310 -355 331 0 16 35 31 132
55 68 18 326 67 364 69 6 1 28 -25 47 -58z m2884 -260 c188 -68 363 -147 363
-165 0 -14 -169 -127 -310 -208 -52 -30 -104 -60 -115 -67 -18 -12 -30 -6
-115 58 -52 39 -123 87 -158 107 -34 20 -65 41 -68 46 -3 4 30 41 73 81 43 39
105 98 138 129 33 32 65 58 72 58 7 0 61 -18 120 -39z m-2839 -336 l103 -67
-63 -56 c-35 -31 -100 -92 -144 -135 l-82 -78 -98 36 c-55 20 -164 68 -244
107 l-145 69 25 19 c43 32 215 138 326 199 l107 60 56 -43 c31 -24 102 -74
159 -111z m2840 -207 c110 -91 292 -268 292 -284 0 -23 -135 -59 -375 -99 -81
-13 -150 -26 -152 -29 -3 -3 12 -33 34 -68 113 -179 221 -403 204 -421 -10
-10 -226 16 -394 49 l-133 26 -37 141 c-20 78 -43 163 -51 188 l-14 47 121 6
c183 10 236 17 252 33 20 20 1 56 -110 207 -47 66 -83 122 -78 126 4 3 51 23
103 43 52 21 127 53 165 72 39 18 74 34 78 34 5 1 47 -31 95 -71z m-2881 -192
c65 -19 139 -37 164 -41 80 -12 80 -6 -12 -199 l-84 -176 -122 0 c-116 0 -363
16 -391 25 -17 6 2 42 73 136 66 89 237 289 247 289 3 0 60 -15 125 -34z m469
-428 c-10 -49 -35 -256 -38 -312 l-3 -50 -118 -43 c-112 -41 -284 -93 -356
-108 l-34 -7 7 41 c9 59 77 262 127 380 l43 101 70 1 c39 0 112 6 161 13 50 7
103 14 119 15 27 1 28 -1 22 -31z m1540 -124 c21 -9 106 -35 188 -59 l150 -42
13 -69 c25 -129 53 -339 53 -397 0 -56 -1 -58 -22 -52 -37 11 -338 168 -402
209 -56 36 -58 40 -53 72 3 19 11 107 18 194 7 88 14 160 15 160 1 0 19 -7 40
-16z m-1202 -101 c2 -10 10 -45 16 -78 6 -33 25 -111 42 -173 l31 -114 -38
-31 c-248 -208 -367 -289 -388 -268 -8 8 -13 91 -15 266 l-4 255 64 27 c34 15
110 51 168 79 58 29 108 53 112 53 4 1 9 -7 12 -16z m895 -136 c53 -41 122
-91 154 -112 31 -21 57 -43 57 -49 0 -33 -35 -217 -61 -321 -37 -150 -48 -185
-59 -185 -20 0 -235 235 -347 381 -10 13 -5 30 30 100 24 46 59 123 78 171 19
49 38 88 43 88 5 0 52 -33 105 -73z m-494 21 c9 -13 48 -73 88 -133 40 -61 82
-124 95 -141 l23 -31 -52 -89 c-63 -108 -184 -291 -212 -321 -11 -12 -24 -20
-30 -16 -18 11 -95 188 -147 337 l-51 148 128 133 c70 73 131 133 135 134 4 0
14 -9 23 -21z"/>
</g>
</svg>
