<?xml version="1.0" standalone="no"?>
<!DOCTYPE svg PUBLIC "-//W3C//DTD SVG 20010904//EN"
 "http://www.w3.org/TR/2001/REC-SVG-20010904/DTD/svg10.dtd">
<svg version="1.0" xmlns="http://www.w3.org/2000/svg"
 width="1013.000000pt" height="326.000000pt" viewBox="0 0 1013.000000 326.000000"
 preserveAspectRatio="xMidYMid meet">

<g transform="translate(0.000000,326.000000) scale(0.100000,-0.100000)"
fill="#000000" stroke="none">
<path d="M1641 2736 c-33 -68 -62 -133 -66 -145 -3 -12 -10 -21 -14 -21 -4 0
-41 27 -82 59 -96 77 -177 127 -189 115 -5 -5 -14 -78 -21 -161 -14 -167 -12
-165 -75 -138 -45 19 -213 65 -236 65 -11 0 -18 -8 -18 -18 0 -17 61 -248 74
-282 6 -14 -16 -17 -154 -27 -88 -6 -163 -13 -167 -16 -8 -8 26 -64 109 -180
39 -54 69 -99 67 -101 -2 -2 -47 -21 -99 -41 -117 -46 -190 -82 -190 -94 0
-14 73 -71 173 -136 l89 -57 -122 -116 c-100 -94 -119 -117 -105 -124 20 -12
160 -52 238 -69 32 -7 59 -15 61 -18 2 -3 -27 -71 -65 -151 l-69 -145 53 -3
c28 -2 93 1 144 7 50 6 102 11 115 11 l24 0 -12 -72 c-16 -95 -28 -258 -19
-258 3 0 72 30 151 66 80 37 147 64 150 61 3 -3 14 -45 24 -93 29 -138 52
-214 66 -214 6 0 62 52 122 115 109 113 111 115 125 93 112 -180 164 -251 178
-242 13 7 80 144 110 222 13 34 27 62 31 62 4 0 56 -36 114 -81 104 -79 149
-107 159 -98 7 8 25 180 25 250 0 36 2 68 5 71 3 3 34 -5 68 -17 80 -29 244
-71 251 -64 6 6 -25 143 -54 238 -11 35 -20 67 -20 71 0 4 51 11 113 14 151 9
187 15 194 33 8 21 -14 59 -98 172 l-69 94 69 27 c103 40 231 102 231 112 0
10 -103 86 -191 141 -38 23 -69 45 -69 49 0 5 52 59 116 120 l116 113 -40 18
c-22 9 -89 29 -149 43 -59 15 -114 28 -120 30 -8 2 12 52 57 139 39 75 70 143
70 151 0 18 -120 18 -240 0 -47 -7 -86 -12 -88 -11 -2 2 4 52 12 111 23 171
26 224 13 224 -7 0 -76 -31 -154 -69 l-143 -70 -9 37 c-5 20 -14 62 -21 92
-21 97 -51 190 -60 190 -5 0 -60 -51 -122 -114 l-113 -115 -45 72 c-60 98
-132 197 -142 197 -5 0 -35 -56 -67 -124z m283 -208 c13 -29 33 -83 45 -119
l22 -66 -66 -66 c-35 -37 -67 -67 -69 -67 -2 0 -26 34 -54 74 l-49 75 34 63
c36 63 101 158 109 158 3 0 15 -24 28 -52z m-297 -32 c28 -30 64 -72 80 -93
l31 -38 -39 -84 c-22 -47 -41 -86 -43 -88 -5 -5 -140 97 -144 109 -10 25 42
248 57 248 5 0 31 -24 58 -54z m597 -67 c8 -77 7 -159 -2 -181 -10 -24 -171
-102 -177 -85 -2 6 -12 47 -23 89 l-18 78 30 29 c40 37 165 131 175 131 5 0
11 -28 15 -61z m-802 -91 l67 -39 -6 -92 c-3 -51 -7 -94 -9 -96 -4 -4 -166 40
-176 48 -10 9 -41 230 -34 247 6 17 37 4 158 -68z m1058 -54 c0 -9 -16 -64
-36 -123 l-35 -108 -97 -10 c-53 -5 -98 -9 -100 -7 -2 1 3 44 10 95 l13 94
110 37 c125 43 135 44 135 22z m-1325 -110 c58 -9 111 -22 118 -28 12 -10 62
-175 55 -182 -2 -1 -43 -4 -92 -5 -78 -3 -90 -1 -103 16 -20 27 -103 192 -103
205 0 13 3 13 125 -6z m734 -55 c14 -35 26 -66 28 -68 2 -3 18 9 36 26 36 34
77 63 89 63 5 0 8 -36 8 -79 l0 -79 48 18 c85 31 102 33 102 10 0 -11 -9 -43
-20 -72 -11 -29 -20 -54 -20 -55 0 -2 13 -3 29 -3 53 0 121 -13 121 -23 0 -5
-21 -34 -46 -63 -45 -53 -45 -54 -22 -63 93 -39 118 -51 118 -58 0 -5 -29 -26
-65 -47 l-64 -37 57 -54 c31 -29 54 -56 51 -59 -3 -3 -32 -11 -65 -17 -32 -6
-64 -12 -71 -14 -7 -3 1 -26 23 -67 18 -35 34 -67 34 -72 0 -8 -88 -2 -135 10
-21 5 -21 4 -10 -78 l10 -82 70 -23 c39 -12 78 -22 87 -22 25 -1 35 -26 48
-121 6 -47 13 -98 15 -114 5 -26 3 -28 -23 -21 -15 3 -69 29 -120 57 l-93 52
7 96 7 97 -68 36 c-38 20 -71 34 -75 32 -4 -2 -10 -24 -13 -48 -3 -24 -11 -57
-17 -73 l-12 -29 -53 59 -53 60 -36 -56 c-20 -31 -40 -59 -45 -63 -12 -7 -34
33 -51 93 -7 23 -15 42 -17 42 -3 0 -29 -20 -60 -45 -30 -25 -59 -45 -64 -45
-5 0 -9 34 -9 75 0 41 -3 75 -7 75 -5 0 -40 -10 -80 -22 -81 -25 -79 -22 -89
-137 l-7 -73 -42 -18 c-55 -23 -195 -63 -202 -57 -6 7 14 80 48 168 l29 76 73
7 c115 11 111 9 139 91 29 86 30 85 -68 85 -63 0 -64 1 -54 21 7 11 27 38 46
59 19 20 34 41 34 46 0 5 -28 20 -62 34 -34 14 -63 31 -65 37 -3 7 24 28 60
48 l63 37 -53 51 c-29 27 -53 53 -53 57 0 7 39 18 126 36 21 4 21 5 -12 66
-18 35 -34 67 -34 72 0 9 94 2 137 -10 20 -6 21 -4 12 33 -9 39 -12 123 -5
123 2 0 32 -16 67 -35 62 -36 78 -35 79 2 0 30 22 113 30 113 5 0 30 -27 58
-59 l49 -59 18 31 c36 64 60 97 70 94 5 -2 21 -32 34 -68z m777 -92 c8 -7 -88
-136 -134 -180 l-29 -28 -79 22 c-43 12 -84 23 -90 24 -7 2 6 39 30 89 l41 87
127 -4 c70 -1 130 -6 134 -10z m-1478 -162 c50 -71 57 -95 29 -95 -7 0 -41
-14 -75 -30 -38 -18 -69 -27 -77 -22 -24 13 -175 153 -175 162 0 11 50 27 137
45 108 21 103 23 161 -60z m1506 -129 c56 -25 59 -27 43 -44 -10 -9 -59 -42
-110 -73 l-92 -55 -77 50 c-42 28 -77 55 -77 60 -1 6 29 38 66 71 l68 62 60
-22 c33 -13 87 -35 119 -49z m-1550 -93 c39 -26 73 -49 75 -51 3 -1 -24 -32
-60 -68 -55 -56 -68 -64 -92 -60 -36 7 -207 87 -207 96 0 11 184 127 204 129
5 1 41 -20 80 -46z m1479 -169 c48 -42 87 -82 87 -89 0 -16 -39 -29 -149 -50
-108 -20 -105 -20 -124 18 -9 17 -32 53 -51 78 l-35 45 82 36 c45 20 87 36 92
37 6 1 49 -33 98 -75z m-1429 -61 c42 -10 76 -21 76 -26 0 -4 -18 -43 -40 -87
l-40 -80 -79 0 c-102 0 -171 10 -171 24 0 21 151 198 165 192 7 -2 47 -13 89
-23z m1322 -203 c29 -52 54 -104 56 -115 3 -18 -2 -20 -42 -17 -25 2 -83 10
-130 18 l-85 15 -18 72 c-11 40 -21 82 -24 94 -5 21 -2 22 73 26 44 2 88 3 98
3 13 -1 35 -29 72 -96z m-955 -133 c0 -12 8 -52 18 -89 l17 -68 -80 -63 c-103
-82 -122 -92 -130 -71 -3 9 -6 67 -6 130 l0 114 83 39 c45 21 85 36 90 34 4
-2 7 -14 8 -26z m464 -65 c33 -25 63 -48 68 -52 8 -7 -24 -176 -43 -225 l-12
-30 -69 73 c-116 124 -113 113 -67 210 26 55 43 80 51 75 7 -3 39 -27 72 -51z
m-226 -41 l52 -79 -42 -68 c-50 -83 -87 -134 -98 -134 -9 0 -41 69 -76 164
l-26 70 63 63 c34 35 65 63 69 63 4 0 30 -36 58 -79z"/>
<path d="M4225 2394 c-108 -16 -192 -41 -285 -86 -91 -44 -115 -62 -195 -142
-77 -77 -99 -106 -138 -186 -68 -137 -82 -200 -81 -355 0 -151 15 -219 75
-340 96 -197 270 -336 494 -396 112 -30 307 -30 420 0 223 59 398 199 500 402
65 127 91 278 74 426 -43 386 -342 658 -744 677 -49 2 -103 2 -120 0z m166
-304 c241 -45 407 -302 356 -552 -41 -201 -176 -338 -366 -369 -274 -45 -521
172 -521 458 0 131 40 238 122 328 62 68 122 104 208 127 76 20 127 22 201 8z"/>
<path d="M8661 2390 c-477 -66 -769 -502 -650 -968 58 -229 250 -433 482 -513
299 -103 646 -24 854 193 354 370 245 993 -211 1213 -137 66 -326 95 -475 75z
m189 -300 c207 -39 350 -206 366 -430 19 -245 -138 -451 -373 -492 -185 -31
-385 70 -467 237 -138 282 2 611 289 681 63 16 118 17 185 4z"/>
<path d="M5290 2230 l0 -140 395 0 c217 0 395 -2 395 -5 0 -3 -182 -218 -405
-477 l-405 -471 0 -124 0 -123 615 0 615 0 0 140 0 140 -406 2 -407 3 407 473
406 473 0 125 0 124 -605 0 -605 0 0 -140z"/>
<path d="M6820 1630 l0 -740 530 0 530 0 0 145 0 145 -370 0 -370 0 0 595 0
595 -160 0 -160 0 0 -740z"/>
</g>
</svg>
