<?xml version="1.0" standalone="no"?>
<!DOCTYPE svg PUBLIC "-//W3C//DTD SVG 20010904//EN"
 "http://www.w3.org/TR/2001/REC-SVG-20010904/DTD/svg10.dtd">
<svg version="1.0" xmlns="http://www.w3.org/2000/svg"
 width="799.000000pt" height="566.000000pt" viewBox="0 0 799.000000 566.000000"
 preserveAspectRatio="xMidYMid meet">

<g transform="translate(0.000000,566.000000) scale(0.100000,-0.100000)"
fill="#000000" stroke="none">
<path d="M3862 4800 l-51 -111 -63 48 c-73 56 -137 97 -143 91 -2 -2 -7 -35
-10 -73 -3 -39 -8 -93 -11 -121 l-5 -52 -87 28 c-122 39 -152 45 -152 28 0
-10 34 -140 57 -220 5 -16 -4 -18 -83 -19 -49 0 -107 -3 -128 -7 l-39 -7 71
-105 72 -105 -27 -10 c-93 -35 -188 -83 -188 -95 0 -8 41 -42 92 -75 50 -33
92 -63 92 -66 1 -4 -37 -44 -85 -90 -100 -98 -101 -95 46 -130 55 -13 100 -29
100 -35 0 -6 -23 -57 -50 -114 -28 -56 -48 -105 -45 -108 3 -3 58 0 122 6 63
7 118 11 120 8 2 -2 -1 -42 -7 -88 -6 -47 -10 -101 -8 -121 l3 -37 100 46 c55
25 105 48 112 51 7 3 14 -5 17 -19 15 -69 49 -204 53 -212 3 -4 45 32 94 80
49 48 90 86 93 83 2 -2 31 -45 64 -95 33 -51 65 -95 71 -98 9 -6 101 168 101
193 0 27 27 18 93 -32 39 -29 84 -61 98 -71 26 -16 27 -16 33 6 3 13 9 69 13
126 3 56 8 102 10 102 3 0 49 -14 104 -31 54 -17 107 -29 118 -27 19 3 18 6
-6 98 -41 157 -44 140 23 141 110 2 168 12 172 31 3 17 -33 77 -91 150 -27 34
-29 58 -6 58 15 0 172 72 187 85 10 9 2 20 -40 52 -29 22 -75 52 -101 68 l-49
28 86 86 c47 48 86 89 86 93 0 8 -109 44 -177 59 -29 6 -53 12 -53 14 0 3 23
49 50 103 28 54 50 104 50 110 0 15 -88 16 -180 2 -35 -5 -66 -8 -67 -6 -2 1
1 25 6 52 5 27 12 82 16 122 6 59 4 72 -7 72 -8 0 -61 -22 -117 -50 -69 -34
-103 -46 -106 -37 -2 6 -15 59 -29 116 -14 57 -28 106 -31 109 -3 3 -45 -33
-93 -81 l-88 -87 -64 97 c-36 53 -70 98 -76 100 -6 2 -34 -46 -62 -107z m228
-155 c10 -24 25 -63 31 -85 l13 -41 -51 -51 -50 -50 -37 54 c-20 30 -36 59
-36 63 0 15 91 155 101 155 5 0 18 -20 29 -45z m-188 -58 l40 -47 -27 -65
c-16 -36 -31 -65 -35 -65 -4 0 -29 17 -56 37 -27 20 -50 37 -52 39 -4 3 14
102 28 156 l11 40 26 -23 c14 -13 43 -45 65 -72z m408 -52 l0 -95 -60 -30
c-34 -17 -64 -28 -69 -26 -12 8 -34 122 -26 135 9 15 136 111 146 111 5 0 9
-43 9 -95z m-626 -8 l70 -42 -3 -65 c-1 -36 -5 -68 -9 -71 -4 -3 -35 3 -68 13
-70 22 -70 22 -81 136 -7 87 -5 88 91 29z m816 -59 c0 -7 -12 -48 -26 -90 -21
-65 -29 -78 -47 -78 -12 0 -45 -3 -74 -6 l-52 -7 6 59 c3 33 9 66 13 74 9 16
121 58 158 59 12 1 22 -5 22 -11z m-436 -131 l16 -39 43 36 c24 20 47 36 51
36 3 0 6 -27 6 -60 0 -33 2 -60 4 -60 2 0 23 7 46 15 69 24 71 22 50 -40 l-19
-55 47 0 c71 0 76 -9 36 -60 l-35 -44 56 -25 56 -26 -48 -29 c-26 -16 -50 -31
-52 -33 -2 -1 16 -20 40 -42 l44 -39 -28 -11 c-16 -6 -39 -11 -52 -11 -35 0
-38 -13 -10 -62 32 -55 31 -61 -5 -54 -16 3 -43 9 -60 12 l-30 6 7 -62 6 -62
-51 26 c-61 31 -62 31 -62 9 0 -10 -5 -36 -11 -58 l-11 -39 -39 42 c-22 23
-41 42 -43 42 -2 0 -17 -20 -33 -45 -15 -25 -31 -45 -34 -45 -4 0 -15 23 -25
50 -10 28 -21 50 -25 50 -3 0 -23 -13 -44 -30 -21 -16 -42 -30 -46 -30 -5 0
-9 26 -9 58 l0 59 -57 -19 c-32 -11 -59 -21 -61 -23 -2 -2 -7 -34 -10 -72 l-7
-68 -87 -30 c-48 -16 -90 -26 -93 -23 -7 7 3 43 37 136 l19 52 52 1 c75 1 86
8 108 69 10 30 18 56 19 57 0 1 -27 3 -61 5 l-61 3 37 48 37 48 -51 21 c-28
12 -51 25 -51 30 0 4 21 19 46 34 l45 27 -42 43 -42 42 39 11 c22 6 47 11 57
11 23 0 22 9 -10 65 l-26 48 61 -7 62 -7 -7 61 -6 62 55 -31 56 -32 7 47 c12
81 14 82 60 30 l41 -48 33 54 c37 58 31 60 65 -25z m-524 50 l55 -12 21 -65
c12 -36 19 -68 17 -72 -2 -5 -35 -8 -72 -8 l-69 0 -41 79 c-22 43 -41 82 -41
85 0 9 69 5 130 -7z m1097 -105 c9 -6 -3 -27 -43 -76 -30 -37 -61 -69 -69 -72
-10 -4 -123 22 -133 31 -2 2 11 30 27 64 l31 61 88 0 c48 0 93 -4 99 -8z
m-1103 -129 l37 -53 -58 -25 c-32 -14 -67 -24 -78 -21 -26 7 -131 113 -121
123 10 11 170 42 177 34 3 -3 22 -30 43 -58z m1077 -69 c35 -14 72 -31 82 -36
22 -11 21 -13 -86 -77 l-62 -38 -57 39 c-32 22 -58 43 -58 46 0 10 93 91 106
92 6 0 39 -12 75 -26z m-1116 -91 c30 -21 54 -40 55 -43 0 -3 -22 -27 -49 -54
l-48 -48 -74 31 c-82 35 -106 48 -99 55 6 6 154 95 158 96 2 0 28 -17 57 -37z
m1120 -135 c36 -33 62 -65 58 -69 -8 -8 -141 -39 -168 -39 -7 0 -32 26 -54 58
l-41 57 57 27 c32 14 63 27 70 27 7 1 42 -27 78 -61z m-1027 -53 c2 -2 -11
-33 -27 -70 l-31 -68 -92 7 c-51 4 -94 9 -97 11 -4 5 39 64 86 116 l33 37 63
-16 c34 -8 63 -16 65 -17z m942 -137 c49 -89 51 -112 13 -104 -16 2 -58 10
-96 16 -60 11 -68 15 -73 39 -3 14 -10 39 -15 55 -15 50 -12 55 39 59 26 2 57
4 69 5 18 2 30 -12 63 -70z m-215 -67 c67 -21 69 -25 81 -143 l7 -68 -29 12
c-84 37 -155 82 -149 95 3 8 5 39 5 69 0 62 -1 62 85 35z m-495 -87 l17 -65
-46 -38 c-54 -44 -93 -71 -102 -71 -11 0 -22 125 -15 162 6 28 15 37 64 59 31
14 59 24 61 22 3 -2 12 -33 21 -69z m335 5 c40 -30 55 -48 55 -66 0 -45 -32
-164 -43 -160 -6 2 -38 33 -70 70 l-60 66 27 56 c14 31 26 60 26 65 0 16 8 12
65 -31z m-183 -6 c64 -98 64 -79 7 -168 -59 -92 -59 -92 -104 31 l-28 76 49
49 c26 27 49 49 50 49 1 0 12 -17 26 -37z"/>
<path d="M2190 2424 c-203 -43 -364 -198 -426 -409 -24 -81 -24 -239 0 -320
54 -182 169 -311 341 -380 91 -37 255 -46 355 -21 246 62 414 272 427 531 10
182 -43 321 -167 446 -142 143 -327 197 -530 153z m257 -122 c176 -55 296
-215 310 -412 21 -299 -224 -538 -504 -492 -247 41 -406 268 -373 531 23 176
145 325 309 375 66 21 188 20 258 -2z"/>
<path d="M5545 2426 c-210 -48 -380 -217 -430 -429 -19 -79 -19 -205 0 -285
47 -198 208 -367 400 -417 75 -19 233 -19 305 0 187 50 327 182 393 374 25 72
29 99 29 190 0 89 -4 120 -27 186 -79 235 -270 381 -515 391 -59 2 -118 -1
-155 -10z m240 -120 c146 -39 253 -143 305 -297 19 -55 22 -80 18 -175 -4
-102 -7 -116 -41 -188 -180 -378 -715 -320 -822 89 -49 191 24 405 175 510 96
67 249 92 365 61z"/>
<path d="M3070 2365 l0 -55 350 0 c193 0 350 -2 350 -5 0 -3 -162 -211 -360
-463 -358 -455 -360 -457 -360 -505 l0 -47 448 2 447 3 3 57 3 58 -364 2 -364
3 363 460 c347 439 363 462 364 503 l0 42 -440 0 -440 0 0 -55z"/>
<path d="M4212 1858 l3 -563 378 -3 377 -2 0 60 0 60 -315 0 -315 0 0 505 0
505 -65 0 -65 0 2 -562z"/>
</g>
</svg>
